<svg height="512" viewBox="0 0 58 58" width="512" xmlns="http://www.w3.org/2000/svg"><g id="Page-1" fill="none" fill-rule="evenodd"><g id="068---404-Page" transform="translate(-1)"><path id="Path" d="m59 2.18v39.82h-58v-39.82c-.04521019-1.152631.84774936-2.12595691 2-2.18h54c1.1522506.05404309 2.0452102 1.027369 2 2.18z" fill="#90bae1"/><path id="Path" d="m59 2.18v16.88c-1.2220093 1.4648442-2.5596388 2.8292263-4 4.08-8.99 7.87-24.23 13.47-50 10.12-1.31-.16-2.64-.35-4-.57v-30.51c-.04521019-1.152631.84774936-2.12595691 2-2.18h54c1.1522506.05404309 2.0452102 1.027369 2 2.18z" fill="#b0d3f0"/><path id="Path" d="m59 42v3.82c.0452102 1.152631-.8477494 2.1259569-2 2.18h-54c-1.15225064-.0540431-2.04521019-1.027369-2-2.18v-3.82z" fill="#547580"/><path id="Path" d="m38 48 3 6h-11-11l3-6z" fill="#3f5c6c"/><rect id="Rectangle" fill="#547580" height="4" rx="2" width="34" x="13" y="54"/><path id="Path" d="m55 23.14v12.86c-.0032948 1.1032019-.8967981 1.9967052-2 2h-46c-1.10320187-.0032948-1.9967052-.8967981-2-2v-2.74c25.77 3.35 41.01-2.25 50-10.12z" fill="#35495e"/><path id="Path" d="m55 6v17.14c-8.99 7.87-24.23 13.47-50 10.12v-27.26c.0032948-1.10320187.89679813-1.9967052 2-2h46c1.1032019.0032948 1.9967052.89679813 2 2z" fill="#3f5c6c"/><g fill="#e64c3c" fill-rule="nonzero"><path id="Shape" d="m20 23h-2v-9c.0001993-.424813-.2680233-.8033866-.6688708-.9440546-.4008474-.1406679-.8468203-.0127245-1.1121292.3190546l-8 10c-.24033967.3001841-.28725909.7115903-.12068187 1.0581819.16657722.3465915.51713846.5669624.90168187.5668181h7v3c0 .5522847.4477153 1 1 1s1-.4477153 1-1v-3h2c.5522847 0 1-.4477153 1-1s-.4477153-1-1-1zm-4 0h-4.919l4.919-6.149z"/><path id="Shape" d="m51 23h-2v-9c.0001993-.424813-.2680233-.8033866-.6688708-.9440546-.4008474-.1406679-.8468203-.0127245-1.1121292.3190546l-8 10c-.2403397.3001841-.2872591.7115903-.1206819 1.0581819.1665772.3465915.5171385.5669624.9016819.5668181h7v3c0 .5522847.4477153 1 1 1s1-.4477153 1-1v-3h2c.5522847 0 1-.4477153 1-1s-.4477153-1-1-1zm-4 0h-4.919l4.919-6.149z"/><path id="Shape" d="m30 13c-3.859 0-7 3.589-7 8s3.141 8 7 8 7-3.589 7-8-3.141-8-7-8zm0 14c-2.757 0-5-2.691-5-6s2.243-6 5-6 5 2.691 5 6-2.243 6-5 6z"/></g></g></g></svg>